<?xml version="1.0" encoding="utf-8"?>
<!-- Generator: Adobe Illustrator 26.5.2, SVG Export Plug-In . SVG Version: 6.00 Build 0)  -->
<svg version="1.1" id="Layer_1" xmlns="http://www.w3.org/2000/svg" xmlns:xlink="http://www.w3.org/1999/xlink" x="0px" y="0px"
	 viewBox="0 0 2431 918" style="enable-background:new 0 0 2431 918;" xml:space="preserve">
<style type="text/css">
	.st0{fill-rule:evenodd;clip-rule:evenodd;fill:#FFFFFF;}
	.st1{fill-rule:evenodd;clip-rule:evenodd;fill:#FE6601;}
	.st2{fill-rule:evenodd;clip-rule:evenodd;fill:#11162E;}
	.st3{fill-rule:evenodd;clip-rule:evenodd;fill:#29ABE2;}
	.st4{fill-rule:evenodd;clip-rule:evenodd;fill:#2E3192;}
	.st5{fill:#1B1464;}
	.st6{fill-rule:evenodd;clip-rule:evenodd;}
</style>
<path class="st4" d="M249.3,543.3c26.2-44.5,57.2-85.7,92.3-123h-54.9c-24.8,23.7-47.9,49.4-69.1,76.7
	c-17.6,22.8-33.9,46.7-48.7,71.7c8.7,12.4,18.7,24.3,29.8,35.4l13,13C222.8,591.6,235.4,567,249.3,543.3 M309.8,399.1h52.6
	c24.3-23.7,50.4-45.7,78.1-65.6h-42.4C366.9,353,337.4,375,309.8,399.1z M566,257c-12,3.6-23.9,7.6-35.6,11.9
	c-4.1,1.5-8.3,3-12.4,4.6c-28.9,11.1-57,24.2-83.9,38.9h37.4c17.5-11.3,35.6-21.7,54.2-31.4c8-4.2,16.2-8.2,24.4-12.1
	c8.8-4.1,17.6-8.1,26.6-11.9c7.9-3.3,15.9-6.5,23.9-9.5C588.9,250.3,577.4,253.5,566,257z M649.9,349c31.2-41,69.1-76.7,112.3-105.6
	C714,251.2,668,265,624.8,284.1c-24.1,10.7-47.3,23-69.4,36.8c-102.1,63.8-181.8,159.6-225.4,273.7c-13.5,35.3-23.5,72.4-29.7,110.8
	l88.7,88.7l190.3-190.3C648,535.1,671.6,437.6,649.9,349z M122.3,447.7c2,16.3,5.6,32.4,10.5,48.1c20.7-24.8,42.8-48.2,66.2-70.2
	c83-78,181.8-137.4,289.8-174.1c30.3-10.3,61.4-18.8,93-25.4c-0.9-0.9-1.7-1.8-2.6-2.6c-104.7-104.7-275.9-104.7-380.6,0
	c-50.3,50.3-76.4,116-78.4,182.3"/>
<g>
	<path class="st5" d="M885.1,427.1c-14.5,0-28.6-2.7-42.4-8c-13.8-5.4-26.1-13-36.8-22.9l21.2-26.6c10.4,9.2,20.4,15.8,30,19.9
		c9.6,4.1,19.8,6.1,30.5,6.1c7.5,0,14-0.9,19.4-2.7c5.5-1.8,9.7-4.4,12.6-7.8c3-3.4,4.5-7.4,4.5-12c0-6.1-2.2-10.9-6.6-14.2
		c-4.4-3.3-12-5.9-22.7-7.8l-35.5-6.1c-15.2-2.6-26.7-7.9-34.6-16.1c-7.9-8.2-11.9-18.7-11.9-31.7c0-11.1,2.9-20.7,8.6-28.9
		c5.7-8.2,13.8-14.4,24.3-18.8c10.5-4.3,23-6.5,37.4-6.5c13.1,0,26.2,2.2,39.2,6.6c13,4.4,24.6,10.6,34.6,18.4L937,295.8
		c-18.7-14.3-37.6-21.5-56.5-21.5c-6.6,0-12.4,0.9-17.4,2.6c-4.9,1.7-8.7,4-11.4,7c-2.6,3-4,6.5-4,10.6c0,5.5,2,9.7,5.9,12.6
		c3.9,3,10.5,5.2,19.7,6.8l33.7,5.6c17.9,2.9,31.3,8.6,40.1,17c8.9,8.4,13.3,19.5,13.3,33.3c0,11.6-3.1,21.7-9.2,30.3
		c-6.1,8.6-14.9,15.2-26.2,19.9C913.8,424.8,900.5,427.1,885.1,427.1z"/>
	<path class="st5" d="M1033.9,424.5V278.4h-60.3v-32.7H1131v32.7h-60.1v146.2H1033.9z"/>
	<path class="st5" d="M1158.1,424.5V245.7h87.4c12.1,0,22.8,2.3,32.1,7c9.3,4.7,16.5,11.2,21.7,19.5c5.2,8.3,7.8,18,7.8,28.9
		c0,11.4-3.2,21.5-9.5,30.2c-6.3,8.7-14.7,15.2-25.3,19.4l39.6,73.8h-41.4l-35-68.5h-40.4v68.5H1158.1z M1195.1,325.7h47
		c8.3,0,15-2.2,20.1-6.6c5-4.4,7.5-10.2,7.5-17.4s-2.5-12.9-7.5-17.4c-5-4.4-11.7-6.6-20.1-6.6h-47V325.7z"/>
	<path class="st5" d="M1338,424.5V245.7h137.5v32.2H1375v40.9h66.2v31.2H1375v42.4h101.4v32.2H1338z"/>
	<path class="st5" d="M1509.2,424.5V245.7h137.5v32.2h-100.4v40.9h66.2v31.2h-66.2v42.4h101.4v32.2H1509.2z"/>
	<path class="st5" d="M1729.2,424.5V278.4h-60.3v-32.7h157.4v32.7h-60.1v146.2H1729.2z"/>
	<path d="M909.2,701c-13.3,0-25.6-2.3-37.1-7c-11.4-4.7-21.5-11.2-30.2-19.7c-8.7-8.4-15.5-18.2-20.3-29.4
		c-4.9-11.2-7.3-23.2-7.3-36.2c0-12.9,2.4-25,7.3-36.2c4.9-11.2,11.5-21,20.1-29.4c8.5-8.4,18.5-15,30-19.7c11.5-4.7,23.8-7,36.9-7
		c14.8,0,28.8,2.9,41.9,8.8c13.1,5.9,23.9,14.1,32.5,24.7l-25.8,23.8c-6.1-7.7-13.4-13.5-21.7-17.4c-8.3-3.9-17.3-5.9-26.8-5.9
		c-8,0-15.4,1.5-22.2,4.5c-6.8,3-12.8,7.1-17.9,12.3c-5.1,5.2-9.1,11.3-11.9,18.4c-2.8,7.1-4.2,14.8-4.2,23.1
		c0,8.3,1.4,16.1,4.3,23.3c2.9,7.2,6.9,13.3,12.1,18.5c5.2,5.2,11.2,9.3,18.1,12.3c6.9,3,14.4,4.5,22.6,4.5c8.5,0,16.2-1.6,23-4.7
		c6.8-3.2,12.6-7.6,17.2-13.3c4.7-5.7,7.8-12.1,9.3-19.3h-52.9v-32.2h92.5V609c0,13.3-2.3,25.5-6.8,36.7
		c-4.5,11.2-10.8,20.9-18.8,29.1c-8,8.3-17.5,14.7-28.4,19.3C934,698.7,922.1,701,909.2,701z"/>
	<path d="M1107,700.7c-16.2,0-30.2-3.2-42-9.7c-11.8-6.5-21-15.7-27.5-27.7c-6.5-12-9.7-26.1-9.7-42.3V519.3h37.1V621
		c0,9.2,1.7,17.2,5.2,24.1c3.5,6.9,8.4,12.2,14.8,15.8c6.4,3.7,13.8,5.5,22.4,5.5c8.5,0,15.9-1.8,22.2-5.5
		c6.3-3.7,11.2-8.9,14.7-15.8c3.5-6.9,5.2-14.9,5.2-24.1V519.3h36.8V621c0,16-3.2,30-9.7,42c-6.5,12-15.6,21.3-27.5,27.9
		C1137.1,697.5,1123.1,700.7,1107,700.7z"/>
	<path d="M1197.7,698.2l73.6-178.9h42.7l72.8,178.9h-40.1l-18.1-47h-73.8l-18.4,47H1197.7z M1266.2,621.5h51.1l-25.6-65.9
		L1266.2,621.5z"/>
	<path d="M1408.2,698.2V519.3h87.4c12.1,0,22.8,2.3,32.1,7c9.3,4.7,16.5,11.2,21.7,19.5c5.2,8.3,7.8,18,7.8,28.9
		c0,11.4-3.2,21.5-9.5,30.2c-6.3,8.7-14.7,15.2-25.3,19.4l39.6,73.8h-41.4l-35-68.5h-40.4v68.5H1408.2z M1445.3,599.3h47
		c8.3,0,15-2.2,20.1-6.6c5-4.4,7.5-10.2,7.5-17.4s-2.5-12.9-7.5-17.4c-5-4.4-11.7-6.6-20.1-6.6h-47V599.3z"/>
	<path d="M1588.1,698.2V519.3h68.7c13.5,0,25.9,2.3,37.3,6.8c11.4,4.5,21.4,10.9,29.9,19c8.5,8.2,15.2,17.7,20.1,28.6
		c4.9,10.9,7.3,22.7,7.3,35.3c0,12.8-2.4,24.5-7.2,35.3c-4.8,10.7-11.5,20.1-20.1,28.2c-8.6,8.1-18.6,14.4-30,18.9
		c-11.4,4.5-23.9,6.8-37.3,6.8H1588.1z M1625.2,665.2h31.2c8,0,15.5-1.4,22.4-4.2s12.9-6.8,18.1-11.9c5.2-5.1,9.2-11.1,12-17.9
		c2.8-6.8,4.2-14.2,4.2-22.2c0-8-1.4-15.5-4.3-22.4c-2.9-6.9-6.9-12.9-12-18c-5.1-5.1-11.1-9.1-18-12c-6.9-2.9-14.4-4.3-22.4-4.3
		h-31.2V665.2z"/>
	<path d="M1783.1,698.2V519.3h37.1v178.9H1783.1z"/>
	<path d="M1841.9,698.2l73.6-178.9h42.7l72.8,178.9h-40.1l-18.1-47h-73.8l-18.4,47H1841.9z M1910.3,621.5h51.1l-25.6-65.9
		L1910.3,621.5z"/>
	<path d="M2052.4,698.2V519.3h35.3l88.9,115.5V519.3h34.8v178.9h-32.7l-91.2-119.6v119.6H2052.4z"/>
</g>
<path class="st6" d="M649.9,349c31.2-41,69.1-76.7,112.3-105.6C714,251.2,668,265,624.8,284.1c-24.1,10.7-47.3,23-69.4,36.8
	c-102.1,63.8-181.8,159.6-225.4,273.7c-13.5,35.3-23.5,72.4-29.7,110.8l88.7,88.7l190.3-190.3C648,535.1,671.6,437.6,649.9,349z"/>
</svg>
